<?xml version="1.0" encoding="UTF-8"?>
<svg version="1.1" xmlns="http://www.w3.org/2000/svg" width="2056" height="2063">
<path d="M0 0 C1.80381638 0.00090637 1.80381638 0.00090637 3.64407349 0.00183105 C23.95303241 0.02937569 44.13417139 0.5129191 64.375 2.1875 C65.14855835 2.25066406 65.9221167 2.31382813 66.71911621 2.37890625 C130.94976654 7.67387121 194.06818188 20.34638432 255.375 40.1875 C256.06851562 40.41179688 256.76203125 40.63609375 257.4765625 40.8671875 C306.54006647 56.78968313 354.49233218 77.76131944 399.375 103.1875 C400.39368164 103.75936035 401.41236328 104.3312207 402.46191406 104.92041016 C417.20845069 113.21116157 431.55346596 121.95534321 445.62109375 131.35107422 C448.35459173 133.17389087 451.09774724 134.98124518 453.84375 136.78515625 C481.12505021 154.75638769 506.94003822 174.59272096 531.76416016 195.81494141 C533.41394684 197.22068568 535.07154745 198.61677109 536.73046875 200.01171875 C549.01926673 210.38590071 560.69100353 221.38650357 571.984375 232.83203125 C574.13126843 234.94735272 576.32880001 236.92498283 578.625 238.875 C581.84317212 241.62695805 584.5303819 244.59293976 587.26171875 247.8203125 C590.01263218 250.90174233 592.93677489 253.78575398 595.875 256.6875 C599.9579612 260.72907983 603.92366999 264.79343354 607.64453125 269.17578125 C609.79033274 271.67033603 612.02085677 274.07968982 614.25 276.5 C618.33937787 280.98412928 622.22119021 285.59017238 626.03125 290.3125 C628.12534348 292.88125467 630.25713341 295.40822342 632.41210938 297.92553711 C637.84237835 304.27315801 643.02503507 310.76787858 648.05517578 317.43798828 C649.44761037 319.2837497 650.84683331 321.12425292 652.24609375 322.96484375 C682.19584472 362.48712617 708.28156833 404.62982963 730.68066406 448.85009766 C732.20833172 451.85920671 733.75302267 454.85868888 735.3046875 457.85546875 C773.48631659 532.12368491 797.75627538 615.09470913 818.375 805.1875 C818.39159668 806.22793457 818.40819336 807.26836914 818.42529297 808.34033203 C818.51671159 815.29153337 818.48603157 822.23670797 818.375 829.1875 C818.35711426 830.30898438 818.33922852 831.43046875 818.32080078 832.5859375 C817.19109849 892.88070524 809.34876017 952.5524732 795.375 1011.1875 C795.21493469 1011.86041077 795.05486938 1012.53332153 794.88995361 1013.22662354 C789.72098731 1034.87071599 783.31408529 1056.05673123 776.375 1077.1875 C775.98699219 1078.37214844 775.59898438 1079.55679687 775.19921875 1080.77734375 C756.7059497 1136.77992883 731.00124889 1190.84689204 700.375 1241.1875 C699.81458008 1242.11755859 699.25416016 1243.04761719 698.67675781 1244.00585938 C686.20579606 1264.70234909 672.40967332 1284.52814065 658.375 1304.1875 C663.16389793 1309.95093176 668.30407126 1315.25179061 673.6124382 1320.53681278 C675.0011069 1321.92541467 675.0011069 1321.92541467 676.41782951 1323.34206912 C678.98410208 1325.90808782 681.55348778 1328.4709692 684.12339064 1331.03335139 C686.92013469 1333.8230395 689.71392678 1336.61568128 692.50808454 1339.4079594 C697.40464222 1344.30043235 702.30303297 1349.19106391 707.20262527 1354.08049774 C714.48875039 1361.35155949 721.77195219 1368.62554411 729.05446973 1375.90021891 C740.55672732 1387.39001037 752.06064767 1398.87813521 763.56567049 1410.36515771 C781.8323489 1428.60333722 800.09381702 1446.84672668 818.35352746 1465.09188213 C822.24049014 1468.97573088 826.1275036 1472.8595288 830.01451564 1476.74332815 C830.78936515 1477.51753764 831.56421465 1478.29174713 832.36254445 1479.08941751 C833.93270546 1480.65828112 835.50286686 1482.22714434 837.07302864 1483.79600717 C838.64899576 1485.37067183 840.22496138 1486.94533798 841.80092552 1488.52000562 C860.38468259 1507.08846828 878.96932654 1525.65604309 897.5546875 1544.22290039 C898.7744563 1545.44146031 898.7744563 1545.44146031 900.0188669 1546.6846376 C926.38664652 1573.02620692 952.75965137 1599.36253854 979.13484248 1625.69668667 C1006.25707713 1652.77679234 1033.37262163 1679.86358093 1060.48031297 1706.95824502 C1064.30962899 1710.7857082 1068.13902859 1714.61308776 1071.96848297 1718.44041252 C1072.7221299 1719.19364326 1073.47577683 1719.946874 1074.25226155 1720.72292991 C1086.3748699 1732.83842234 1098.50461895 1744.94674128 1110.63715655 1757.05228962 C1122.83394376 1769.22220781 1135.02352172 1781.39930837 1147.20577142 1793.5837791 C1154.44033468 1800.81920909 1161.68042828 1808.04899998 1168.92861248 1815.27078551 C1173.77461408 1820.10023724 1178.61326223 1824.93697514 1183.44610139 1829.7795983 C1186.19668996 1832.535339 1188.95026729 1835.28788817 1191.71290645 1838.0315525 C1212.77174271 1858.95366862 1212.77174271 1858.95366862 1220.375 1871.1875 C1220.88314263 1872.00423 1221.39128526 1872.82096001 1221.91482615 1873.66243941 C1223.05924093 1875.55760245 1224.11026214 1877.47027034 1225.125 1879.4375 C1225.67148193 1880.48828735 1225.67148193 1880.48828735 1226.22900391 1881.56030273 C1230.20834125 1889.47421646 1233.00877439 1897.66711595 1235.375 1906.1875 C1235.7153125 1907.36441406 1236.055625 1908.54132813 1236.40625 1909.75390625 C1241.10124641 1929.55548831 1240.29761298 1953.76535095 1234.375 1973.1875 C1234.06949219 1974.24565918 1234.06949219 1974.24565918 1233.7578125 1975.32519531 C1224.5113866 2006.76018954 1202.24883415 2033.13085132 1173.74389648 2048.99121094 C1161.41982529 2055.52854325 1148.12656398 2059.91884097 1134.375 2062.1875 C1132.86292969 2062.46207031 1132.86292969 2062.46207031 1131.3203125 2062.7421875 C1115.28008592 2064.55266852 1098.03324514 2064.40229312 1082.375 2060.1875 C1081.66794922 2059.99945801 1080.96089844 2059.81141602 1080.23242188 2059.61767578 C1053.24310436 2052.1450828 1033.13281263 2036.12882765 1013.6486721 2016.58421993 C1012.71865838 2015.65536005 1011.78864465 2014.72650017 1010.83044869 2013.76949301 C1008.26653123 2011.20861769 1005.7057077 2008.64466855 1003.14540939 2006.08017558 C1000.35294549 2003.28425537 997.55755584 2000.49126281 994.76254523 1997.69788891 C989.87029592 1992.80770714 984.97989692 1987.91568118 980.09072113 1983.02242661 C972.82074567 1975.74640309 965.54789136 1968.47326224 958.27445306 1961.20070053 C946.03801483 1948.96557469 933.80390125 1936.7281269 921.5711174 1924.48934746 C909.46163465 1912.37394477 897.35111579 1900.25957931 885.23921585 1888.14659309 C884.4857306 1887.3930391 883.73224535 1886.63948511 882.95592721 1885.86309615 C879.12924705 1882.03607765 875.30254842 1878.20907764 871.47584267 1874.38208473 C844.38147092 1847.28561338 817.28941766 1820.186825 790.19873047 1793.08666992 C763.88284849 1766.76160146 737.56591477 1740.43758514 711.24755859 1714.11499023 C710.43610744 1713.30340755 709.62465629 1712.49182487 708.7886157 1711.65564878 C700.6395818 1703.50529634 692.49052654 1695.35496526 684.34145562 1687.20464984 C667.7413174 1670.6019755 651.14132176 1653.99915861 634.54141235 1637.39625549 C633.77819928 1636.63290513 633.0149862 1635.86955476 632.22864546 1635.08307257 C581.27504137 1584.12027004 530.32476093 1533.15414467 479.375 1482.1875 C475.60301085 1483.63145848 472.7224499 1485.23803653 469.5 1487.6875 C451.96600689 1500.68603356 433.19489338 1512.15747641 414.375 1523.1875 C413.6315332 1523.62497559 412.88806641 1524.06245117 412.12207031 1524.51318359 C397.15796972 1533.28850308 381.86539069 1541.38424628 366.375 1549.1875 C365.77451843 1549.4906311 365.17403687 1549.79376221 364.55535889 1550.1060791 C334.6979269 1565.15882333 303.92546601 1578.10631702 272.375 1589.1875 C270.56805664 1589.82800293 270.56805664 1589.82800293 268.72460938 1590.48144531 C192.46082207 1617.41010478 111.21275526 1632.23072863 -360.66894531 1551.74169922 C-391.0613249 1537.09233165 -420.6413089 1520.02855518 -448.625 1501.1875 C-449.5123584 1500.59227539 -450.3997168 1499.99705078 -451.31396484 1499.38378906 C-477.19966022 1481.98780487 -502.04974369 1463.48865165 -525.79907227 1443.26171875 C-529.11142248 1440.44560993 -532.47213621 1437.70682347 -535.875 1435 C-543.09988765 1429.11927749 -549.75514746 1422.62098649 -556.49804688 1416.20117188 C-559.07879214 1413.75787677 -561.68791383 1411.34665471 -564.29980469 1408.93676758 C-570.52803684 1403.18090134 -576.61747317 1397.29845934 -582.625 1391.3125 C-583.31916016 1390.62293213 -584.01332031 1389.93336426 -584.72851562 1389.22290039 C-588.66223032 1385.27730853 -592.41438908 1381.23044514 -596.03320312 1376.99365234 C-597.66207023 1375.14543779 -599.36636615 1373.41198059 -601.125 1371.6875 C-604.8368719 1368.02479197 -608.23511518 1364.14770571 -611.625 1360.1875 C-612.53239364 1359.13267618 -613.43995908 1358.07800014 -614.34765625 1357.0234375 C-616.93347979 1354.01626136 -619.51192027 1351.00285196 -622.08740234 1347.98681641 C-623.07879386 1346.8266774 -624.07122904 1345.66742905 -625.06494141 1344.50927734 C-632.15487358 1336.24556475 -638.97355839 1327.80757489 -645.625 1319.1875 C-646.24068848 1318.3924707 -646.85637695 1317.59744141 -647.49072266 1316.77832031 C-655.66611169 1306.20686884 -663.67760467 1295.57755536 -671.10253906 1284.46386719 C-672.85924811 1281.83725474 -674.62920036 1279.21975165 -676.3984375 1276.6015625 C-725.711583 1203.39160384 -763.14524596 1123.44500443 -815.625 869.1875 C-815.67232269 868.47404419 -815.71964539 867.76058838 -815.7684021 867.0255127 C-816.8141634 850.88282922 -816.82638428 834.73306357 -816.8125 818.5625 C-816.81223312 817.8653891 -816.81196625 817.1682782 -816.81169128 816.45004272 C-816.80171184 795.66331544 -816.67488598 774.94885785 -814.80859375 754.22912598 C-814.61204868 752.04347682 -814.42317296 749.85722967 -814.234375 747.67089844 C-810.75878003 707.99547962 -804.42782918 669.02275803 -795.625 630.1875 C-795.45784485 629.44862549 -795.2906897 628.70975098 -795.11846924 627.94848633 C-784.86468491 582.84679865 -769.98479065 538.61717718 -751.625 496.1875 C-751.13483398 495.04635742 -750.64466797 493.90521484 -750.13964844 492.72949219 C-737.35886026 463.10852993 -723.08202307 433.94557344 -706.625 406.1875 C-706.12355469 405.32962891 -705.62210938 404.47175781 -705.10546875 403.58789062 C-677.98971917 357.28517394 -645.99503759 313.33823987 -609.85546875 273.6640625 C-607.96965912 271.5701863 -606.11221091 269.45698244 -604.26171875 267.33203125 C-594.20251088 255.82126858 -583.48083896 244.94224863 -572.6875 234.125 C-572.14965881 233.58457062 -571.61181763 233.04414124 -571.05767822 232.48733521 C-565.65222579 227.06136774 -560.23230253 221.70399135 -554.40649414 216.72387695 C-551.4558117 214.17918124 -548.64636027 211.48560578 -545.8125 208.8125 C-540.84181045 204.16110822 -535.76278808 199.7359995 -530.4453125 195.48046875 C-527.8281062 193.35262928 -525.27989876 191.16703197 -522.73803711 188.95092773 C-514.95547898 182.17412231 -506.84929115 175.8984473 -498.60888672 169.69091797 C-496.81268579 168.329731 -495.02979293 166.95393442 -493.25390625 165.56640625 C-434.41343824 119.65468028 -367.4413252 83.29070519 -66.0625 2.4375 C-64.97366013 2.34847916 -64.97366013 2.34847916 -63.86282349 2.25765991 C-42.58821005 0.55305011 -21.33913124 -0.01998444 0 0 Z M-63.625 254.1875 C-64.71119629 254.31478485 -64.71119629 254.31478485 -65.81933594 254.44464111 C-153.44480146 264.82197503 -238.91985573 295.5550454 -354.625 376.1875 C-355.52089844 376.90808594 -356.41679687 377.62867188 -357.33984375 378.37109375 C-362.80803278 382.79626215 -368.11237172 387.35285189 -373.3125 392.08984375 C-375.28884372 393.88257446 -377.2895673 395.63545227 -379.3125 397.375 C-392.06347317 408.50312204 -404.81288961 420.1706221 -415.79296875 433.07421875 C-417.67383352 435.24383035 -419.6139949 437.35198509 -421.56762695 439.45605469 C-426.29659446 444.55337709 -430.83637647 449.74644512 -435.1953125 455.16796875 C-436.98664261 457.3941716 -438.79238303 459.60238116 -440.6171875 461.80078125 C-499.79605623 533.34269782 -539.07651988 621.18732045 -564.625 772.1875 C-564.72216309 773.22962646 -564.81932617 774.27175293 -564.91943359 775.34545898 C-566.00373649 788.82527116 -565.86980878 802.36079036 -565.875 815.875 C-565.87529457 816.54186325 -565.87558914 817.2087265 -565.87589264 817.89579773 C-565.87745199 839.78665571 -565.38643341 861.45172227 -562.625 883.1875 C-562.52789734 883.96279053 -562.43079468 884.73808105 -562.33074951 885.53686523 C-552.67508029 962.00869322 -528.72139807 1035.5788218 -489.625 1102.1875 C-488.88515869 1103.46415527 -488.88515869 1103.46415527 -488.13037109 1104.76660156 C-472.88590385 1131.06139882 -455.13211174 1155.89088697 -435.625 1179.1875 C-434.86340576 1180.09773926 -434.86340576 1180.09773926 -434.08642578 1181.02636719 C-427.36292031 1189.03064322 -420.41333979 1196.79968959 -413.26708984 1204.42773438 C-411.48805302 1206.3342609 -409.72224387 1208.25254556 -407.95703125 1210.171875 C-400.97275137 1217.73698492 -393.87274629 1224.94300899 -386.17578125 1231.78955078 C-383.87353062 1233.86491085 -381.62310637 1235.99424072 -379.3659668 1238.1184082 C-373.92450095 1243.22986503 -368.40733703 1248.16163037 -362.57421875 1252.828125 C-360.37107131 1254.59064295 -358.19005369 1256.37001758 -356.01953125 1258.171875 C-326.37067499 1282.70796064 -293.62742778 1303.26484193 -259.625 1321.1875 C-258.16078613 1321.96262939 -258.16078613 1321.96262939 -256.66699219 1322.75341797 C-189.98982788 1357.79613988 -114.7331677 1378.27061199 -39.625 1383.1875 C-38.35398437 1383.27362549 -37.08296875 1383.35975098 -35.7734375 1383.44848633 C-23.80618782 1384.21406595 -11.86444365 1384.38873711 0.125 1384.375 C1.10811157 1384.37439575 2.09122314 1384.3737915 3.10412598 1384.37316895 C81.23514189 1384.24359844 157.80716269 1367.64020705 344.375 1268.1875 C345.01614746 1267.69942871 345.65729492 1267.21135742 346.31787109 1266.70849609 C358.54657454 1257.35219857 370.18477188 1247.33547858 381.4609375 1236.85546875 C383.60386964 1234.89350809 385.76594161 1232.99600353 387.97265625 1231.109375 C393.1582578 1226.58791802 397.99547975 1221.71688199 402.84790039 1216.8449707 C404.43459946 1215.25291034 406.02657742 1213.6662701 407.61914062 1212.08007812 C413.08226332 1206.62047102 418.35902675 1201.06435221 423.375 1195.1875 C424.7882355 1193.6426874 426.20440409 1192.10054675 427.625 1190.5625 C432.17102866 1185.5241772 436.33811753 1180.24283332 440.4921875 1174.8828125 C442.40618606 1172.41562008 444.34767203 1169.97524105 446.3203125 1167.5546875 C453.78387561 1158.3911381 460.69454589 1148.93503945 467.375 1139.1875 C467.85404785 1138.49350098 468.3330957 1137.79950195 468.82666016 1137.08447266 C519.81797281 1063.00470777 551.09888278 978.26767526 566.375 856.1875 C566.45959473 855.04788818 566.45959473 855.04788818 566.54589844 853.88525391 C572.31487655 775.56028184 559.78958207 695.61808 435.375 454.1875 C434.86227539 453.57567871 434.34955078 452.96385742 433.82128906 452.33349609 C421.89929549 438.11165145 409.09851834 424.82122327 396 411.6875 C395.43601501 411.12083618 394.87203003 410.55417236 394.29095459 409.97033691 C388.16696095 403.82429289 382.00847392 397.78918253 375.375 392.1875 C374.25666129 391.21486375 373.13944405 390.2409363 372.0234375 389.265625 C363.9989989 382.31482769 355.79655719 375.65023843 347.375 369.1875 C346.77526367 368.72408203 346.17552734 368.26066406 345.55761719 367.78320312 C327.31584192 353.71841818 308.13416838 341.01135018 288.375 329.1875 C287.56869141 328.70249023 286.76238281 328.21748047 285.93164062 327.71777344 C218.97721837 287.69126151 142.76661024 263.0627789 65.375 254.1875 C64.08368164 254.03796875 62.79236328 253.8884375 61.46191406 253.734375 C20.14936212 249.10066356 -22.34572911 249.30195416 -63.625 254.1875 Z " fill="#040707" transform="translate(816.625,-0.1875)"/>
</svg>
