<?xml version="1.0" encoding="UTF-8"?>
<svg version="1.1" xmlns="http://www.w3.org/2000/svg" width="980" height="982">
<path d="M0 0 C12.46425071 12.71862317 10.14202752 31.23646252 10.20532227 47.84936523 C10.2149306 49.47717521 10.22494225 51.10498284 10.23532104 52.73278809 C10.26205671 57.10158003 10.28323329 61.47038244 10.30332303 65.83920932 C10.32537893 70.42359176 10.35267054 75.00794315 10.37937927 79.59230042 C10.42904383 88.25098778 10.47407857 96.90969263 10.51740164 105.56841379 C10.5670001 115.43558357 10.62183345 125.30272216 10.67708123 135.16986167 C10.79049783 155.44654532 10.89742266 175.72325881 11 196 C12.13709412 196.22139648 13.27418823 196.44279297 14.44573975 196.67089844 C18.73401464 197.50746615 23.02073567 198.35178202 27.30706787 199.19824219 C29.1493558 199.56097786 30.99203872 199.92171415 32.83514404 200.28027344 C47.92074616 203.21720257 62.50430654 206.81306719 77 212 C77.87914062 212.31404785 78.75828125 212.6280957 79.6640625 212.95166016 C108.08029143 223.31263789 133.08190368 239.14712754 158 256 C161.1849702 254.59368348 163.31824878 252.92765675 165.76800537 250.46577454 C166.50238831 249.73269577 167.23677124 248.999617 167.9934082 248.24432373 C168.78932373 247.43964661 169.58523926 246.63496948 170.40527344 245.8059082 C171.6743454 244.53486488 171.6743454 244.53486488 172.96905518 243.23814392 C175.28689202 240.91492835 177.60025744 238.58736533 179.91188335 236.25797296 C182.3385879 233.81500636 184.77138926 231.37812791 187.20367432 228.9407196 C191.8160583 224.31695551 196.42374928 219.68854714 201.02940965 215.05808657 C209.25920012 206.78403973 217.49443915 198.51542576 225.73507333 190.25217885 C228.15159613 187.82866391 230.56682788 185.40388867 232.97917938 182.97622108 C235.67632148 180.26232147 238.37647348 177.55144776 241.07714844 174.84106445 C241.86496704 174.04650848 242.65278564 173.25195251 243.46447754 172.43331909 C247.58301846 168.3064067 251.77888408 164.34610301 256.21579361 160.5622282 C259.29781964 157.86364579 262.13542745 154.92536569 265 152 C269.83688508 147.11825775 274.69999105 142.38249213 280 138 C281.18142578 136.96746094 281.18142578 136.96746094 282.38671875 135.9140625 C289.22667155 130.11110102 295.64188834 126.27758992 304.90625 126.71875 C316.44813218 128.26915208 324.65607693 133.62282213 331.6875 142.75390625 C335.7063653 149.63142871 334.74895469 159.95953496 333.609375 167.62890625 C328.11196053 187.32797478 302.8257831 205.31183965 288.58071804 219.5206759 C285.66813794 222.42693168 282.75845959 225.33608992 279.84844971 228.24491882 C274.35784518 233.73243645 268.86470061 239.21740388 263.37059903 244.70142001 C257.10724947 250.95352558 250.84679748 257.20852925 244.58656645 263.46375716 C231.72755981 276.31235934 218.86498643 289.15738537 206 302 C207.23400478 305.16330033 208.46390376 307.92878778 210.3984375 310.72265625 C210.871604 311.41520508 211.34477051 312.10775391 211.83227539 312.82128906 C212.34137451 313.56088867 212.85047363 314.30048828 213.375 315.0625 C229.50207572 338.94396445 242.7571782 363.6480608 252 391 C252.47131348 392.3936377 252.47131348 392.3936377 252.95214844 393.81542969 C257.28655009 406.93890621 260.13946268 420.24290883 262.7109375 433.796875 C263.03238857 435.47322275 263.35424467 437.14949289 263.67651367 438.82568359 C264.45567045 442.88291152 265.22937693 446.94114294 266 451 C266.81923415 451.00423194 267.6384683 451.00846388 268.48252773 451.01282406 C288.48362341 451.11645779 308.48468619 451.22514203 328.48572445 451.33933926 C338.15835883 451.39444599 347.83099689 451.44788894 357.50366211 451.49731445 C365.94151473 451.54043463 374.37934268 451.58677907 382.81715685 451.63687855 C387.27837949 451.66325753 391.73959794 451.68810128 396.20084953 451.70907402 C400.41397425 451.7289315 404.62705297 451.753153 408.84013557 451.78049088 C410.37297844 451.78970991 411.90583127 451.79743652 413.43869019 451.80341911 C421.38200717 451.83533058 429.30130071 452.00153018 437.23365784 452.43861389 C437.93735282 452.47549362 438.6410478 452.51237334 439.36606687 452.55037063 C448.30475969 453.09310635 455.60972125 455.52917152 462 462 C468.63569285 471.26111915 470.24300023 479.81021095 469 491 C466.68354894 499.3024204 460.76392097 505.64602036 453.82292938 510.53273964 C443.75033647 515.76812257 428.82907436 514.30428823 417.66992188 514.31884766 C416.0025536 514.32817463 414.33518988 514.33834727 412.66783142 514.34928894 C408.19579059 514.37629141 403.7237807 514.39164866 399.25168037 514.40471697 C394.55784735 514.42047962 389.86407637 514.44722702 385.17028809 514.4727478 C376.30622791 514.51930531 367.44215575 514.55615993 358.57803679 514.58942068 C348.47624736 514.62780603 338.37452061 514.67717249 328.27278423 514.72740483 C307.51523592 514.83038165 286.75764783 514.91975207 266 515 C265.75289276 516.30454132 265.75289276 516.30454132 265.50079346 517.63543701 C264.87501693 520.9297655 264.2460443 524.22345292 263.61505127 527.51678467 C263.34501323 528.92955293 263.07617143 530.34255047 262.80865479 531.75579834 C257.48681454 559.85341665 249.70133678 587.89759391 235.98876953 613.15185547 C234.95422146 615.08556631 233.97212478 617.04006207 232.99609375 619.00390625 C227.40884344 630.10794646 220.68027759 640.31615363 213.66259766 650.5625 C211.07658606 654.35379806 208.53724045 658.17595433 206 662 C207.3824766 665.10993496 208.97506466 667.22127613 211.38237 669.6161499 C212.08179214 670.31687622 212.78121429 671.01760254 213.50183105 671.73956299 C214.26910522 672.49807556 215.03637939 673.25658813 215.8269043 674.03808594 C216.63525223 674.84511963 217.44360016 675.65215332 218.27644348 676.48364258 C220.95447412 679.15517368 223.63940606 681.81966125 226.32421875 684.484375 C228.18839968 686.34228417 230.05206548 688.20071034 231.91523743 690.05963135 C236.32650582 694.45952065 240.74241721 698.85471586 245.16038305 703.24787927 C253.52308895 711.56369781 261.87886367 719.88646051 270.23044777 728.21344757 C272.96826736 730.9410852 275.70950025 733.66525728 278.45109558 736.38909912 C280.14288961 738.07405938 281.83457129 739.75913246 283.52612305 741.44433594 C284.28327606 742.19475159 285.04042908 742.94516724 285.82052612 743.71832275 C289.89056921 747.77972029 293.7827115 751.93260996 297.5237112 756.29984951 C299.49252943 758.56721568 301.59366801 760.67289825 303.7421875 762.76953125 C304.57669434 763.59026123 305.41120117 764.41099121 306.27099609 765.2565918 C307.13031738 766.1000415 307.98963867 766.94349121 308.875 767.8125 C334.99768754 793.71501263 334.99768754 793.71501263 335.25 806.625 C335.09245277 816.37860581 332.01385393 824.1306262 325 831 C317.26605646 836.88233165 308.85004933 840.14013854 299 839 C282.02448827 835.88833633 267.20769769 816.45000552 255.625 804.5625 C253.58847134 802.57446012 251.53843444 800.72500488 249.38037109 798.87718201 C244.82494245 794.90345334 240.55214889 790.68568206 236.2890625 786.40258789 C235.45884079 785.57251221 234.62861908 784.74243652 233.77323914 783.88720703 C231.05477973 781.16805608 228.33987044 778.44539011 225.625 775.72265625 C223.73093141 773.82672079 221.83666628 771.93098377 219.94213867 770.0355072 C215.4815207 765.57179501 211.02345551 761.10554245 206.5663271 756.63834614 C201.48721787 751.54801612 196.40523082 746.4605633 191.32301331 741.37333691 C180.87882899 730.9187315 170.43822 720.46056046 160 710 C156.52406972 711.34774185 153.59138304 712.79191568 150.515625 714.90625 C149.67153076 715.48036621 148.82743652 716.05448242 147.95776367 716.64599609 C147.06420166 717.25781738 146.17063965 717.86963867 145.25 718.5 C131.02520287 728.09801671 116.50609823 736.6467144 101 744 C99.84371094 744.56074219 98.68742188 745.12148438 97.49609375 745.69921875 C72.49863047 757.26762409 45.66887813 764.1077515 18.58691406 768.57836914 C17.34387009 768.78451214 17.34387009 768.78451214 16.07571411 768.99481964 C14.05058893 769.3305612 12.02531013 769.66537593 10 770 C10.00092179 770.85384372 10.00184359 771.70768744 10.00279331 772.5874052 C10.02491936 793.40489495 10.04144603 814.22238266 10.05181217 835.03988171 C10.05695896 845.1072399 10.06397072 855.17459022 10.07543945 865.24194336 C10.08543583 874.02106666 10.09186519 882.80018426 10.09408849 891.5793131 C10.09538721 896.22374733 10.09841963 900.86816524 10.10573006 905.51259422 C10.11256858 909.89312137 10.11460118 914.27362566 10.11310768 918.65415764 C10.11338051 920.2531929 10.11533882 921.852229 10.11920547 923.45125961 C10.19255187 955.37647342 10.19255187 955.37647342 0 966 C-7.2632767 971.86499883 -15.31945544 974.31717719 -24.6328125 973.875 C-34.44187472 972.39902826 -41.68985594 967.18848131 -47.625 959.44140625 C-54.20452598 947.75900928 -52.145885 931.22155702 -52.11352539 918.15063477 C-52.11324249 916.52282717 -52.11340326 914.89501944 -52.1139679 913.26721191 C-52.11425185 908.89839331 -52.10842071 904.52960282 -52.10139394 900.16079068 C-52.09509291 895.57642848 -52.09455131 890.99206545 -52.09336853 886.40769958 C-52.09027495 877.74898899 -52.08208846 869.09029119 -52.07201904 860.43158621 C-52.06079624 850.56443873 -52.05533199 840.69729061 -52.05032361 830.83013833 C-52.03990395 810.55341844 -52.02234317 790.27671003 -52 770 C-53.17706009 769.7944046 -53.17706009 769.7944046 -54.37789917 769.58465576 C-57.99988177 768.95017556 -61.62103058 768.31105008 -65.2421875 767.671875 C-66.47606201 767.45644043 -67.70993652 767.24100586 -68.98120117 767.01904297 C-112.07992818 759.38919265 -151.18915906 742.97399429 -187.375 718.5 C-188.61168274 717.66882962 -189.84866099 716.83809874 -191.0859375 716.0078125 C-194.06069257 714.01022914 -197.03148438 712.00684761 -200 710 C-203.57502154 711.51831655 -205.85576978 713.61344884 -208.58302307 716.35597229 C-209.49818192 717.27127213 -210.41334076 718.18657196 -211.35623169 719.12960815 C-212.36330516 720.14694961 -213.37029073 721.16437808 -214.37719727 722.18188477 C-215.44322425 723.25175114 -216.50970828 724.32116228 -217.57661438 725.39015198 C-219.8733723 727.69323187 -222.16698533 729.99938321 -224.45825386 732.30792427 C-228.08963111 735.96638589 -231.72865888 739.61717266 -235.36888123 743.26683044 C-243.761358 751.68339489 -252.14387348 760.10985774 -260.52616119 768.53656769 C-268.19130585 776.24217409 -275.85859776 783.94561087 -283.53408283 791.64091915 C-287.14333062 795.2600661 -290.74765887 798.88401789 -294.34816468 802.51186097 C-296.60384409 804.78260048 -298.8637867 807.04906173 -301.12483025 809.31445885 C-302.16211025 810.35544175 -303.19768182 811.3981307 -304.23127747 812.44277191 C-310.80847747 819.08795092 -317.64244094 825.22178738 -325 831 C-325.6554458 831.52445489 -326.31089159 832.04890978 -326.98619938 832.58925724 C-333.15161113 837.30207549 -339.39093393 838.34894189 -347 838.3125 C-348.00933594 838.33666992 -348.00933594 838.33666992 -349.0390625 838.36132812 C-356.99979546 838.36901223 -362.47430161 835.18727352 -368.140625 829.94921875 C-374.30027901 823.49193439 -376.88127424 816.68486895 -377.06640625 807.8203125 C-376.78527747 800.44281166 -375.69511864 795.66617729 -371 790 C-370.59313965 789.49887695 -370.1862793 788.99775391 -369.76708984 788.48144531 C-363.78714932 781.14983093 -357.47918238 774.26364564 -350.66796875 767.6953125 C-348.64261969 765.64920583 -346.78112258 763.60559239 -344.91648865 761.421875 C-340.70461775 756.59070079 -336.20841255 752.07555714 -331.66821289 747.5546875 C-330.76010864 746.64643723 -329.85200439 745.73818695 -328.91638184 744.80241394 C-326.45009964 742.33584729 -323.98076794 739.87235494 -321.51083684 737.4094429 C-318.92122357 734.82612224 -316.33448157 732.23992961 -313.74742126 729.65405273 C-308.85871683 724.76844431 -303.96747113 719.88538847 -299.07528538 715.00326633 C-293.50129138 709.44048746 -287.93016965 703.87483575 -282.35927594 698.30895233 C-270.90935534 686.86945691 -259.45587018 675.43353739 -248 664 C-249.44763538 660.24407424 -251.09614128 657.14840558 -253.37890625 653.82421875 C-254.04857422 652.839375 -254.71824219 651.85453125 -255.40820312 650.83984375 C-256.11912109 649.79957031 -256.83003906 648.75929688 -257.5625 647.6875 C-263.86403745 638.34442048 -269.76784102 628.97754365 -275 619 C-275.32339355 618.39945801 -275.64678711 617.79891602 -275.97998047 617.18017578 C-293.12851917 585.27216103 -302.13764349 550.51915526 -308 515 C-308.84261446 514.99576806 -309.68522892 514.99153612 -310.55337715 514.98717594 C-331.10420356 514.8836424 -351.65499729 514.77497187 -372.20576668 514.66066074 C-382.14416508 514.60550209 -392.08256708 514.5520497 -402.02099609 514.50268555 C-410.68844849 514.45962992 -419.35587632 514.41330008 -428.02329051 514.36312145 C-432.60793755 514.3366915 -437.19258025 514.3118448 -441.77725601 514.29092598 C-446.10281759 514.27113752 -450.42833314 514.24693256 -454.75385284 514.21950912 C-456.33149492 514.21025476 -457.909147 514.20253952 -459.48680496 514.19658089 C-493.87453276 514.06283549 -493.87453276 514.06283549 -504 504 C-510.64323631 494.74846484 -512.24225493 486.18307971 -511 475 C-508.59335956 466.37433075 -502.34066394 459.5877035 -494.75 455.0625 C-483.002488 450.52368855 -468.6063889 451.84213385 -456.15063477 451.79467773 C-454.52282479 451.7850694 -452.89501716 451.77505775 -451.26721191 451.76467896 C-446.89841997 451.73794329 -442.52961756 451.71676671 -438.16079068 451.69667697 C-433.57640824 451.67462107 -428.99205685 451.64732946 -424.40769958 451.62062073 C-415.74901222 451.57095617 -407.09030737 451.52592143 -398.43158621 451.48259836 C-388.56441643 451.4329999 -378.69727784 451.37816655 -368.83013833 451.32291877 C-348.55345468 451.20950217 -328.27674119 451.10257734 -308 451 C-307.83362534 450.12474167 -307.66725067 449.24948334 -307.49583435 448.34770203 C-306.8655384 445.03962702 -306.23256448 441.73208618 -305.59788513 438.42485046 C-305.32590809 437.00478189 -305.05494005 435.58451962 -304.78507996 434.16404724 C-296.5825721 391.00965204 -280.63077008 352.41535503 -256 316 C-255.13251769 314.69767687 -254.26651135 313.39436874 -253.40234375 312.08984375 C-251.61115605 309.38673034 -249.81008238 306.69051521 -248 304 C-249.51831655 300.42497846 -251.61344884 298.14423022 -254.35597229 295.41697693 C-255.27127213 294.50181808 -256.18657196 293.58665924 -257.12960815 292.64376831 C-258.14694961 291.63669484 -259.16437808 290.62970927 -260.18188477 289.62280273 C-261.25175114 288.55677575 -262.32116228 287.49029172 -263.39015198 286.42338562 C-265.69323187 284.1266277 -267.99938321 281.83301467 -270.30792427 279.54174614 C-273.96638589 275.91036889 -277.61717266 272.27134112 -281.26683044 268.63111877 C-289.68339489 260.238642 -298.10985774 251.85612652 -306.53656769 243.47383881 C-314.24217409 235.80869415 -321.94561087 228.14140224 -329.64091915 220.46591717 C-333.2600661 216.85666938 -336.88401789 213.25234113 -340.51186097 209.65183532 C-342.78260048 207.39615591 -345.04906173 205.1362133 -347.31445885 202.87516975 C-348.35544175 201.83788975 -349.3981307 200.80231818 -350.44277191 199.76872253 C-357.08795092 193.19152253 -363.22178738 186.35755906 -369 179 C-369.52445489 178.3445542 -370.04890978 177.68910841 -370.58925724 177.01380062 C-375.23086991 170.94154156 -376.28108687 165.02302242 -376.25 157.5 C-376.25773437 155.62828125 -376.25773437 155.62828125 -376.265625 153.71875 C-375.67279664 145.41915303 -373.03718613 140.49138886 -367 135 C-358.00089643 128.27294733 -349.41674148 126.07051625 -338.2578125 127.22265625 C-323.81649751 130.66848561 -309.76817543 149.07943651 -299.51831055 159.36816406 C-298.44273041 160.44402739 -297.36692781 161.51966836 -296.29092407 162.59510803 C-293.41557714 165.47017215 -290.5432884 168.34827289 -287.67160773 171.22699833 C-284.65324124 174.2516855 -281.6319758 177.2734744 -278.61103821 180.29559326 C-272.91102539 185.99869402 -267.21356279 191.70433522 -261.51704961 197.41093135 C-255.02310899 203.91611265 -248.52627318 210.41839927 -242.02921236 216.92046404 C-228.68295496 230.27712825 -215.3402734 243.63735926 -202 257 C-200.25387228 255.89069047 -198.50798885 254.7809964 -196.76220703 253.67114258 C-195.30380905 252.74426384 -195.30380905 252.74426384 -193.81594849 251.79866028 C-190.81459243 249.88157268 -187.83296689 247.93646271 -184.85546875 245.98266602 C-147.71980981 221.69708038 -109.07802961 206.70736511 -65.51342773 198.39355469 C-64.30847404 198.16276215 -63.10352036 197.9319696 -61.86205292 197.69418335 C-58.90820757 197.12854852 -55.9541872 196.56384617 -53 196 C-52.99576806 195.15131001 -52.99153612 194.30262003 -52.98717594 193.42821217 C-52.88367382 172.73586814 -52.77500768 152.04355677 -52.66066074 131.35126972 C-52.60548576 121.34446138 -52.55203046 111.33764948 -52.50268555 101.33081055 C-52.45965017 92.60440409 -52.41332499 83.87802221 -52.36312145 75.15165395 C-52.33667546 70.53518069 -52.31182793 65.91871182 -52.29092598 61.30220985 C-52.27115912 56.94792421 -52.24695957 52.59368468 -52.21950912 48.23944092 C-52.21024363 46.6500909 -52.20253205 45.06073086 -52.19658089 43.47136497 C-52.0734471 11.54127071 -52.0734471 11.54127071 -43.01171875 1.890625 C-30.3744509 -9.98595294 -13.78883294 -11.19300774 0 0 Z M-54.8125 256.1875 C-55.85407257 256.35697647 -55.85407257 256.35697647 -56.91668701 256.52987671 C-68.13840525 258.36085628 -79.16597541 260.50240151 -90 264 C-90.8461084 264.27150879 -91.6922168 264.54301758 -92.56396484 264.82275391 C-124.0844644 275.15463168 -152.23241485 291.91138834 -176.3828125 314.5703125 C-178.48061379 316.51782355 -180.60309773 318.37088035 -182.8125 320.1875 C-185.8268152 322.74750453 -188.38625783 325.5521019 -190.9375 328.5703125 C-192.49610232 330.40639327 -194.07559281 332.20404812 -195.6875 333.9921875 C-207.82492642 347.59045138 -217.58856373 362.85718487 -226 379 C-226.3722168 379.71172363 -226.74443359 380.42344727 -227.12792969 381.15673828 C-239.39964899 404.96261832 -247.1298106 431.36731228 -250 458 C-250.11085938 458.96679688 -250.22171875 459.93359375 -250.3359375 460.9296875 C-256.03191528 520.19864552 -237.6389745 580.93084509 -200 627 C-199.37689941 627.77537109 -199.37689941 627.77537109 -198.74121094 628.56640625 C-187.35043933 642.71146816 -174.63181485 655.23888264 -160 666 C-159.14390137 666.63929443 -159.14390137 666.63929443 -158.27050781 667.29150391 C-120.41507166 695.50693474 -77.24234681 708.53031091 -30.51831055 713.06738281 C-29.59917625 713.15790924 -28.68004196 713.24843567 -27.73305511 713.34170532 C-25.48883708 713.56253926 -23.24448906 713.7819409 -21 714 C-20.86546988 572.97386319 -20.86546988 572.97386319 -21.38955754 373.07014859 C-21.42716815 364.85485788 -21.46252867 356.63955962 -21.49703979 348.42425537 C-21.54368853 337.38029534 -21.59612921 326.33637396 -21.65287781 315.2924614 C-21.6735043 311.25676454 -21.69219316 307.22106647 -21.70909119 303.18535233 C-21.72870423 298.53926652 -21.75284122 293.89322588 -21.78049481 289.24718118 C-21.78972945 287.5767325 -21.79744855 285.90627453 -21.80341804 284.235811 C-21.84078287 274.11503928 -22.19737652 264.09154639 -23 254 C-33.9000166 253.78126392 -44.03725826 254.38260216 -54.8125 256.1875 Z " fill="#030303" transform="translate(511,8)"/>
<path d="M0 0 C0.66 0.33 1.32 0.66 2 1 C-0.97 3.97 -3.94 6.94 -7 10 C-7.66 9.67 -8.32 9.34 -9 9 C-6.21000549 5.51250686 -3.74764169 2.49842779 0 0 Z " fill="#6F6F6F" transform="translate(148,140)"/>
</svg>
